<?xml version="1.0" encoding="UTF-8" standalone="no"?>
<!-- Created with Inkscape (http://www.inkscape.org/) -->

<svg
   xmlns:dc="http://purl.org/dc/elements/1.1/"
   xmlns:cc="http://creativecommons.org/ns#"
   xmlns:rdf="http://www.w3.org/1999/02/22-rdf-syntax-ns#"
   xmlns:svg="http://www.w3.org/2000/svg"
   xmlns="http://www.w3.org/2000/svg"
   xmlns:sodipodi="http://sodipodi.sourceforge.net/DTD/sodipodi-0.dtd"
   xmlns:inkscape="http://www.inkscape.org/namespaces/inkscape"
   version="1.0"
   width="270"
   height="64"
   id="svg6218"
   inkscape:version="0.48.0 r9654"
   sodipodi:docname="Status_iucn3.1.svg">
  <metadata
     id="metadata33">
    <rdf:RDF>
      <cc:Work
         rdf:about="">
        <dc:format>image/svg+xml</dc:format>
        <dc:type
           rdf:resource="http://purl.org/dc/dcmitype/StillImage" />
      </cc:Work>
    </rdf:RDF>
  </metadata>
  <sodipodi:namedview
     pagecolor="#ffffff"
     bordercolor="#666666"
     borderopacity="1"
     objecttolerance="10"
     gridtolerance="10"
     guidetolerance="10"
     inkscape:pageopacity="0"
     inkscape:pageshadow="2"
     inkscape:window-width="1469"
     inkscape:window-height="949"
     id="namedview31"
     showgrid="false"
     inkscape:zoom="4.2333334"
     inkscape:cx="134.98955"
     inkscape:cy="33.659044"
     inkscape:window-x="0"
     inkscape:window-y="0"
     inkscape:window-maximized="0"
     inkscape:current-layer="svg6218" />
  <defs
     id="defs6220" />
  <path
     inkscape:connector-curvature="0"
     id="path13406"
     style="color:#000000;fill:#000000;fill-opacity:1;fill-rule:nonzero;stroke:#676767;stroke-width:0.50581741;stroke-linecap:round;stroke-linejoin:miter;stroke-miterlimit:4;stroke-opacity:1;stroke-dasharray:none;stroke-dashoffset:0;marker:none;visibility:visible;display:inline;overflow:visible"
     d="m 67.04356,46.368867 a 12.42969,12.42969 0 0 1 -24.85938,0 12.42969,12.42969 0 1 1 24.85938,0 z" />
  <path
     inkscape:connector-curvature="0"
     id="text13438"
     style="font-size:11.87358379px;font-style:normal;font-variant:normal;font-weight:bold;font-stretch:normal;text-align:center;line-height:125%;writing-mode:lr-tb;text-anchor:middle;fill:#ffffff;fill-opacity:1;stroke:none;display:inline;font-family:FreeSans"
     d="m 45.348127,50.737489 0,-8.376009 6.394848,0 0,1.416951 -4.653472,0 0,1.856891 4.329905,0 0,1.411238 -4.329905,0 0,2.279691 4.818197,0 0,1.411238 -6.559573,0 z m 9.271647,0 -2.059059,-8.376009 1.782556,0 1.300149,5.753507 1.57665,-5.753507 2.070825,0 1.511937,5.850637 1.323681,-5.850637 1.753141,0 -2.094357,8.376009 -1.847269,0 -1.717844,-6.26201 -1.711959,6.26201 -1.888451,0 z" />
  <path
     inkscape:connector-curvature="0"
     id="path13412"
     style="color:#000000;fill:#cc9900;fill-opacity:1;fill-rule:nonzero;stroke:#676767;stroke-width:0.50581741;stroke-linecap:round;stroke-linejoin:miter;stroke-miterlimit:4;stroke-opacity:1;stroke-dasharray:none;stroke-dashoffset:0;marker:none;visibility:visible;display:inline;overflow:visible"
     d="m 162.14511,46.368867 a 12.42969,12.42969 0 0 1 -24.85938,0 12.42969,12.42969 0 1 1 24.85938,0 z" />
  <path
     inkscape:connector-curvature="0"
     id="text13426"
     style="font-size:11.87359333px;font-style:normal;font-variant:normal;font-weight:bold;font-stretch:normal;text-align:center;line-height:125%;writing-mode:lr-tb;text-anchor:middle;fill:#ffffcc;fill-opacity:1;stroke:none;display:inline;font-family:FreeSans"
     d="m 144.90022,50.737497 -3.0827,-8.376016 1.88844,0 2.18261,6.199166 2.11201,-6.199166 1.84727,0 -3.08859,8.376016 -1.85904,0 z m 5.83597,-8.376016 1.74137,0 0,4.536532 c 0,0.719907 0.0216,1.18651 0.0647,1.399812 0.0745,0.342814 0.25199,0.618014 0.53241,0.825603 0.28042,0.207593 0.6638,0.311388 1.15014,0.311387 0.49416,10e-7 0.86675,-0.09808 1.11777,-0.294246 0.251,-0.196163 0.402,-0.437082 0.45299,-0.72276 0.0509,-0.285673 0.0765,-0.759895 0.0765,-1.422666 l 0,-4.633662 1.74137,0 0,4.399408 c 0,1.005581 -0.0471,1.715961 -0.14119,2.131142 -0.0942,0.415184 -0.26768,0.765612 -0.52064,1.051287 -0.25298,0.285676 -0.59125,0.513265 -1.01483,0.682766 -0.42358,0.1695 -0.97658,0.25425 -1.65901,0.25425 -0.82363,0 -1.44821,-0.09237 -1.87375,-0.277105 -0.42553,-0.184737 -0.76184,-0.424704 -1.00893,-0.719903 -0.2471,-0.295197 -0.40986,-0.60468 -0.4883,-0.928447 -0.11374,-0.479932 -0.1706,-1.188409 -0.1706,-2.125428 l 0,-4.46797 z" />
  <path
     inkscape:connector-curvature="0"
     id="path13410"
     style="color:#000000;fill:#cc6633;fill-opacity:1;fill-rule:nonzero;stroke:#676767;stroke-width:0.50590676;stroke-linecap:round;stroke-linejoin:miter;stroke-miterlimit:4;stroke-opacity:1;stroke-dasharray:none;stroke-dashoffset:0;marker:none;visibility:visible;display:inline;overflow:visible"
     d="m 130.44461,46.368867 a 12.42969,12.42969 0 0 1 -24.85938,0 12.42969,12.42969 0 1 1 24.85938,0 z" />
  <path
     inkscape:connector-curvature="0"
     id="text13430"
     style="font-size:11.87359142px;font-style:normal;font-variant:normal;font-weight:bold;font-stretch:normal;text-align:center;line-height:125%;writing-mode:lr-tb;text-anchor:middle;fill:#ffcc99;fill-opacity:1;stroke:none;display:inline;font-family:FreeSans"
     d="m 110.56117,50.737497 0,-8.376015 6.39485,0 0,1.416952 -4.65347,0 0,1.856893 4.3299,0 0,1.411238 -4.3299,0 0,2.279693 4.81819,0 0,1.411239 -6.55957,0 z m 8.06563,0 0,-8.376015 1.69432,0 3.52981,5.593532 0,-5.593532 1.61783,0 0,8.376015 -1.74726,0 -3.47686,-5.462122 0,5.462122 -1.61784,0 z" />
  <path
     inkscape:connector-curvature="0"
     id="path13408"
     style="color:#000000;fill:#cc3333;fill-opacity:1;fill-rule:nonzero;stroke:#676767;stroke-width:0.50581741;stroke-linecap:round;stroke-linejoin:miter;stroke-miterlimit:4;stroke-opacity:1;stroke-dasharray:none;stroke-dashoffset:0;marker:none;visibility:visible;display:inline;overflow:visible"
     d="m 98.74408,46.368867 a 12.42969,12.42969 0 0 1 -24.85938,0 12.42969,12.42969 0 1 1 24.85938,0 z" />
  <path
     inkscape:connector-curvature="0"
     id="text13442"
     style="font-size:11.87358379px;font-style:normal;font-variant:normal;font-weight:bold;font-stretch:normal;text-align:center;line-height:125%;writing-mode:lr-tb;text-anchor:middle;fill:#ffcccc;fill-opacity:1;stroke:none;display:inline;font-family:FreeSans"
     d="m 83.75237,47.657914 1.688428,0.51993 c -0.258861,0.914163 -0.689302,1.593118 -1.291324,2.036866 -0.602036,0.44375 -1.365848,0.665624 -2.291438,0.665624 -1.145232,0 -2.086515,-0.379948 -2.823852,-1.139845 -0.737339,-0.759895 -1.106009,-1.798802 -1.106009,-3.116722 0,-1.394091 0.37063,-2.476801 1.111893,-3.248132 0.741258,-0.771315 1.715878,-1.156977 2.923862,-1.156986 1.055017,9e-6 1.911977,0.302825 2.570882,0.908448 0.392195,0.358055 0.686345,0.872271 0.882453,1.542649 l -1.723725,0.399946 c -0.101979,-0.434221 -0.314749,-0.777031 -0.638308,-1.028432 -0.323572,-0.251387 -0.716754,-0.377085 -1.179547,-0.377092 -0.639293,7e-6 -1.157979,0.222834 -1.55606,0.668481 -0.398087,0.44566 -0.597129,1.167466 -0.597127,2.165421 -2e-6,1.058908 0.196098,1.81309 0.588303,2.262552 0.392197,0.449464 0.90206,0.674196 1.529586,0.674194 0.462793,2e-6 0.860877,-0.142837 1.194254,-0.428513 0.333365,-0.285674 0.572608,-0.735137 0.717729,-1.348389 l 0,0 z m 3.194482,3.079583 0,-8.37601 3.665124,0 c 0.921669,8e-6 1.591353,0.07523 2.009053,0.225684 0.417688,0.150463 0.75204,0.418046 1.003056,0.802748 0.251002,0.384717 0.376506,0.824657 0.376514,1.319822 -8e-6,0.628492 -0.190225,1.147469 -0.570653,1.556932 -0.380443,0.409472 -0.949135,0.667533 -1.706077,0.774182 0.376507,0.213307 0.687326,0.447561 0.932459,0.702761 0.245119,0.255207 0.575548,0.708478 0.99129,1.359817 l 1.053061,1.634064 -2.082591,0 -1.258968,-1.822611 C 90.912006,48.263548 90.606089,47.853128 90.441369,47.683624 90.27664,47.514126 90.10211,47.397952 89.91778,47.3351 89.733441,47.27226 89.441252,47.24083 89.041209,47.24083 l -0.352982,0 0,3.49667 -1.741375,0 z m 1.741375,-4.833632 1.288383,0 c 0.835384,4e-6 1.357012,-0.03428 1.564885,-0.102843 0.20786,-0.06856 0.370625,-0.186637 0.48829,-0.354238 0.117655,-0.167591 0.176485,-0.377086 0.176491,-0.628487 -6e-6,-0.28186 -0.07746,-0.509448 -0.232379,-0.682765 -0.154925,-0.173303 -0.373577,-0.282811 -0.655957,-0.328526 -0.141199,-0.01904 -0.564776,-0.02856 -1.270734,-0.02857 l -1.358979,0 0,2.125427 z" />
  <path
     inkscape:connector-curvature="0"
     id="path13404"
     style="color:#000000;fill:#000000;fill-opacity:1;fill-rule:nonzero;stroke:#676767;stroke-width:0.50581741;stroke-linecap:round;stroke-linejoin:miter;stroke-miterlimit:4;stroke-opacity:1;stroke-dasharray:none;stroke-dashoffset:0;marker:none;visibility:visible;display:inline;overflow:visible"
     d="m 35.34305,46.368867 a 12.42969,12.42969 0 0 1 -24.85938,0 12.42969,12.42969 0 1 1 24.85938,0 z" />
  <path
     inkscape:connector-curvature="0"
     id="text13434"
     style="font-size:11.87358856px;font-style:normal;font-variant:normal;font-weight:bold;font-stretch:normal;text-align:center;line-height:125%;writing-mode:lr-tb;text-anchor:middle;fill:#cc3333;fill-opacity:1;stroke:none;display:inline;font-family:FreeSans"
     d="m 15.318381,50.737489 0,-8.376012 6.39485,0 0,1.416951 -4.653474,0 0,1.856892 4.329907,0 0,1.411239 -4.329907,0 0,2.279692 4.818198,0 0,1.411238 -6.559574,0 z m 7.171409,0 2.947397,-4.370838 -2.670894,-4.005174 2.035527,0 1.72961,2.691065 1.694312,-2.691065 2.017878,0 -2.68266,4.068022 2.947396,4.30799 -2.10024,0 -1.911984,-2.896751 -1.917867,2.896751 -2.088475,0 z" />
  <text
     sodipodi:linespacing="125%"
     xml:space="preserve"
     id="text8575"
     style="font-size:10.84812069px;font-style:normal;font-variant:normal;font-weight:normal;font-stretch:normal;text-align:end;line-height:125%;writing-mode:lr-tb;text-anchor:end;fill:#ffffff;fill-opacity:1;stroke:none;display:inline;font-family:Bitstream Vera Sans"
     transform="scale(1.0147258,0.98548788)"
     y="20.811579"
     x="22.188879"><tspan
       id="tspan8579"
       style="text-align:center;text-anchor:middle;fill:#ffffff"
       y="20.811579"
       x="22.188879">Extinct</tspan></text>
  <path
     inkscape:connector-curvature="0"
     id="JasmineUPC_bracket"
     style="font-size:110.84521484px;font-style:normal;font-weight:normal;fill:#ffffff;fill-opacity:1;stroke:none;display:inline;font-family:Bitstream Vera Sans"
     d="m 85.175064,29.578138 c -3.290567,6e-6 -5.877951,0.228532 -7.762159,0.685581 -1.884078,0.457057 -3.210947,1.227094 -3.980607,2.31011 8.5e-5,-1.49039 0.524204,-2.635507 1.572323,-3.435356 1.048303,-0.799838 2.686987,-1.353767 4.916055,-1.661788 2.22919,-0.308007 5.227894,-0.462014 8.996119,-0.462022 l 17.275775,0 c 2.3088,8e-6 4.13986,-0.06457 5.4932,-0.19375 1.35344,-0.129161 2.57417,-0.432208 3.66215,-0.90914 1.37998,-0.755123 2.1363,-1.4258 2.26894,-2.012031 0.66347,0.983669 1.91072,1.758672 3.74176,2.325014 1.7515,0.526612 4.36541,0.789915 7.84177,0.789907 l 19.5447,0 c 5.59936,8e-6 9.3013,0.466997 11.10584,1.400969 1.83106,0.894242 2.74659,2.280304 2.74661,4.158197 -0.98189,-1.132697 -2.3552,-1.915151 -4.11991,-2.347369 -1.76473,-0.432209 -4.29241,-0.648316 -7.58303,-0.648322 l -19.90295,0 c -3.92749,6e-6 -6.93283,-0.231005 -9.01603,-0.693031 -2.08316,-0.462016 -3.53605,-1.3488 -4.35876,-2.660351 -0.76955,1.351296 -2.26227,2.248014 -4.47815,2.690158 -2.21583,0.442155 -5.44676,0.66323 -9.69275,0.663224 l -18.270896,0 z" />
  <text
     sodipodi:linespacing="125%"
     xml:space="preserve"
     id="text2194"
     style="font-size:10.84813213px;font-style:normal;font-variant:normal;font-weight:normal;font-stretch:normal;text-align:end;line-height:125%;writing-mode:lr-tb;text-anchor:end;fill:#ffffff;fill-opacity:1;stroke:none;display:inline;font-family:Bitstream Vera Sans"
     transform="scale(1.0147258,0.98548788)"
     y="20.811567"
     x="116.56985"><tspan
       id="tspan2202"
       style="text-align:center;text-anchor:middle;fill:#ffffff"
       y="20.811567"
       x="116.56985">Threatened</tspan></text>
  <path
     inkscape:connector-curvature="0"
     id="path1914"
     style="fill:#ffffff;fill-rule:evenodd;stroke:#ffffff;stroke-width:1px;stroke-linecap:butt;stroke-linejoin:miter;stroke-opacity:1;display:inline"
     d="m 213.11649,23.571508 0,7.178089" />
  <path
     inkscape:connector-curvature="0"
     id="path1917"
     style="fill:#ffffff;fill-rule:evenodd;stroke:#ffffff;stroke-width:1px;stroke-linecap:butt;stroke-linejoin:miter;stroke-opacity:1;display:inline"
     d="m 22.91336,23.571508 0,7.178088" />
  <path
     inkscape:connector-curvature="0"
     id="path13414"
     style="color:#000000;fill:#006666;fill-opacity:1;fill-rule:nonzero;stroke:#676767;stroke-width:0.50581741;stroke-linecap:round;stroke-linejoin:miter;stroke-miterlimit:4;stroke-opacity:1;stroke-dasharray:none;stroke-dashoffset:0;marker:none;visibility:visible;display:inline;overflow:visible"
     d="m 193.84561,46.368918 a 12.42969,12.42969 0 0 1 -24.85938,0 12.42969,12.42969 0 1 1 24.85938,0 z" />
  <path
     inkscape:connector-curvature="0"
     id="text1899"
     style="font-size:11.87360096px;font-style:normal;font-variant:normal;font-weight:bold;font-stretch:normal;text-align:center;line-height:125%;writing-mode:lr-tb;text-anchor:middle;fill:#99cc99;fill-opacity:1;stroke:none;display:inline;font-family:FreeSans"
     d="m 174.29163,50.737489 0,-8.376021 1.69431,0 3.52983,5.593537 0,-5.593537 1.61782,0 0,8.376021 -1.74725,0 -3.47688,-5.462125 0,5.462125 -1.61783,0 z m 10.63064,0 0,-6.959068 -2.55912,0 0,-1.416953 6.85373,0 0,1.416953 -2.55323,0 0,6.959068 -1.74138,0 z" />
  <path
     inkscape:connector-curvature="0"
     id="path2072"
     style="color:#000000;fill:#006666;fill-opacity:1;fill-rule:nonzero;stroke:#676767;stroke-width:0.50581741;stroke-linecap:round;stroke-linejoin:miter;stroke-miterlimit:4;stroke-opacity:1;stroke-dasharray:none;stroke-dashoffset:0;marker:none;visibility:visible;display:inline;overflow:visible"
     d="m 225.54611,46.368878 a 12.42969,12.42969 0 0 1 -24.85938,0 12.42969,12.42969 0 1 1 24.85938,0 z" />
  <path
     inkscape:connector-curvature="0"
     id="text3021"
     style="font-size:11.87360668px;font-style:normal;font-variant:normal;font-weight:bold;font-stretch:normal;text-align:center;line-height:125%;writing-mode:lr-tb;text-anchor:middle;fill:#ffffff;fill-opacity:1;stroke:none;display:inline;font-family:FreeSans"
     d="m 205.85389,50.737501 0,-8.307464 1.74138,0 0,6.896223 4.32992,0 0,1.411241 -6.0713,0 z m 12.83679,-3.07959 1.68844,0.519931 c -0.25887,0.914166 -0.68931,1.593122 -1.29133,2.036871 -0.60204,0.443751 -1.36586,0.665625 -2.29145,0.665625 -1.14523,0 -2.08652,-0.379949 -2.82386,-1.139848 -0.73734,-0.759896 -1.10601,-1.798804 -1.10601,-3.116727 0,-1.394094 0.37064,-2.476806 1.1119,-3.248137 0.74125,-0.771318 1.71588,-1.156981 2.92387,-1.156989 1.05502,8e-6 1.91198,0.302825 2.57089,0.908449 0.39219,0.358056 0.68634,0.872273 0.88244,1.542652 l -1.72372,0.399947 c -0.10198,-0.434221 -0.31475,-0.777033 -0.63831,-1.028434 -0.32357,-0.251388 -0.71676,-0.377085 -1.17955,-0.377093 -0.63929,8e-6 -1.15798,0.222834 -1.55606,0.668483 -0.39809,0.44566 -0.59713,1.167468 -0.59713,2.165424 0,1.05891 0.1961,1.813095 0.58831,2.262557 0.39219,0.449465 0.90206,0.674197 1.52959,0.674195 0.46279,2e-6 0.86087,-0.142837 1.19425,-0.428514 0.33336,-0.285674 0.57261,-0.735138 0.71773,-1.348392 l 0,0 z" />
  <g
     id="g3041"
     transform="translate(4.947188,6.273199)"
     style="fill:#ffffff">
    <text
       sodipodi:linespacing="125%"
       xml:space="preserve"
       id="text2145"
       style="font-size:10.84812069px;font-style:normal;font-variant:normal;font-weight:normal;font-stretch:normal;text-align:end;line-height:125%;writing-mode:lr-tb;text-anchor:end;fill:#ffffff;fill-opacity:1;stroke:none;display:inline;font-family:Bitstream Vera Sans"
       transform="scale(1.014726,0.985488)"
       y="6.4210806"
       x="204.6432"><tspan
         id="tspan3029"
         style="text-align:center;text-anchor:middle;fill:#ffffff"
         y="6.4210806"
         x="204.6432">Least</tspan></text>
    <text
       sodipodi:linespacing="125%"
       xml:space="preserve"
       id="text3037"
       style="font-size:10.84811878px;font-style:normal;font-variant:normal;font-weight:normal;font-stretch:normal;text-align:end;line-height:125%;writing-mode:lr-tb;text-anchor:end;fill:#ffffff;fill-opacity:1;stroke:none;display:inline;font-family:Bitstream Vera Sans"
       transform="scale(1.014726,0.985488)"
       y="14.440681"
       x="205.1093"><tspan
         id="tspan3039"
         style="text-align:center;text-anchor:middle;fill:#ffffff"
         y="14.440681"
         x="205.1093">Concern</tspan></text>
  </g>
  <path
     inkscape:connector-curvature="0"
     id="path13406-1"
     style="color:#000000;fill:#888888;fill-opacity:1;fill-rule:nonzero;stroke:#676767;stroke-width:0.50581741000000002;stroke-linecap:round;stroke-linejoin:miter;stroke-miterlimit:4;stroke-opacity:1;stroke-dasharray:none;stroke-dashoffset:0;marker:none;visibility:visible;display:inline;overflow:visible"
     d="m 257.15409,46.51969 a 12.42969,12.42969 0 0 1 -24.85938,0 12.42969,12.42969 0 1 1 24.85938,0 z" />
  <text
     xml:space="preserve"
     style="font-size:10px;font-style:normal;font-weight:normal;line-height:125%;letter-spacing:0px;word-spacing:0px;fill:#000000;fill-opacity:1;stroke:none;font-family:Sans"
     x="209.29247"
     y="107.51212"
     id="text3891"
     sodipodi:linespacing="125%"><tspan
       sodipodi:role="line"
       id="tspan3893"
       x="209.29247"
       y="107.51212" /></text>
  <g
     style="font-size:12px;font-style:normal;font-variant:normal;font-weight:bold;font-stretch:normal;line-height:125%;letter-spacing:0px;word-spacing:0px;fill:#ffffff;fill-opacity:1;stroke:none;font-family:Arial;-inkscape-font-specification:Arial Bold"
     id="text3895">
    <path
       d="m 237.07542,50.720867 0,-8.589844 1.6875,0 3.51563,5.736329 0,-5.736329 1.61133,0 0,8.589844 -1.74024,0 -3.46289,-5.601562 0,5.601562 z"
       style=""
       id="path3900" />
    <path
       d="m 245.72972,50.720867 0,-8.589844 6.36914,0 0,1.453125 -4.63476,0 0,1.904297 4.3125,0 0,1.447266 -4.3125,0 0,2.337891 4.79882,0 0,1.447265 z"
       style=""
       id="path3902" />
  </g>
</svg>
